<svg xmlns="http://www.w3.org/2000/svg" viewBox="0 0 61.7588 18.3688"><defs><style>.cls-1{fill:#121617;}.cls-2{fill:#008d36;}</style></defs><g id="katman_2" data-name="katman 2"><g id="katman_1-2" data-name="katman 1"><path class="cls-1" d="M3.714,18.2486a1.1312,1.1312,0,0,1-1.28-1.28V7.7839H1.0288Q0,7.7839,0,6.8051t1.0288-.9786H2.4343V5.6006a5.1846,5.1846,0,0,1,1.23-3.7517A5.5536,5.5536,0,0,1,7.2525.3557L8.03.3055A.94.94,0,0,1,8.821.5188a.8866.8866,0,0,1,.2634.6525,1.2165,1.2165,0,0,1-.2007.69.8045.8045,0,0,1-.6024.3514l-.4768.025a3.1328,3.1328,0,0,0-2.1582.8281,3.1045,3.1045,0,0,0-.6775,2.1833v.5773H7.4031q1.0539,0,1.054.9786t-1.054.9788H4.9688v9.1848A1.12,1.12,0,0,1,3.714,18.2486Z"/><path class="cls-1" d="M15.81,18.2988a6.491,6.491,0,0,1-4.7431-1.694,6.1792,6.1792,0,0,1-1.7315-4.63A6.9864,6.9864,0,0,1,10.1006,8.65a5.6038,5.6038,0,0,1,2.1206-2.246,5.9875,5.9875,0,0,1,3.1118-.8031,5.0944,5.0944,0,0,1,3.99,1.6186,6.4225,6.4225,0,0,1,1.4555,4.4544q0,.8535-1.0038.8533h-7.98q.276,3.815,4.04,3.8144a7.1344,7.1344,0,0,0,1.5809-.1882,4.9878,4.9878,0,0,0,1.6061-.69,1.3,1.3,0,0,1,.916-.2133.8039.8039,0,0,1,.5646.4266,1.0083,1.0083,0,0,1,.0629.7529,1.2581,1.2581,0,0,1-.59.7152,6.2617,6.2617,0,0,1-1.9951.8658A8.8808,8.8808,0,0,1,15.81,18.2988ZM15.4333,7.3824a3.2945,3.2945,0,0,0-2.5095.9787,4.4636,4.4636,0,0,0-1.1293,2.61h6.851a4.17,4.17,0,0,0-.9034-2.6476A2.9143,2.9143,0,0,0,15.4333,7.3824Z"/><path class="cls-1" d="M27.4787,18.2988A3.715,3.715,0,0,1,24.53,17.17a4.8811,4.8811,0,0,1-.9913-3.3126V1.485a1.12,1.12,0,0,1,1.2547-1.28,1.1313,1.1313,0,0,1,1.28,1.28V13.7063q0,2.4845,2.0077,2.4845a2.8383,2.8383,0,0,0,.4014-.0251,2.5124,2.5124,0,0,1,.3514-.0251.4286.4286,0,0,1,.4266.1631,1.5493,1.5493,0,0,1,.1254.7654,1.05,1.05,0,0,1-.9536,1.18q-.2511.0248-.4893.0376C27.7839,18.2944,27.6294,18.2988,27.4787,18.2988Z"/><path class="cls-1" d="M32.4726,3.0158a1.231,1.231,0,0,1-1.4053-1.38q0-1.33,1.4053-1.33,1.43,0,1.43,1.33Q33.903,3.0161,32.4726,3.0158Zm0,15.2077q-1.2551,0-1.2546-1.38V7.0561q0-1.3551,1.2546-1.3551,1.28,0,1.28,1.3551v9.7871Q33.7525,18.2237,32.4726,18.2235Z"/><path class="cls-1" d="M43.7152,11.7438,47.48,16.5619a1.1,1.1,0,0,1,.2635,1.2422,1.001,1.001,0,0,1-.9662.5647,1.6888,1.6888,0,0,1-1.38-.7027l-3.162-3.9651-3.1369,3.9651a2.0879,2.0879,0,0,1-.5771.527,1.5337,1.5337,0,0,1-.778.1757,1.0039,1.0039,0,0,1-.9662-.5522,1.1231,1.1231,0,0,1,.2635-1.2547l3.7643-4.8181"/><path class="cls-1" d="M55.736,18.2988a6.3426,6.3426,0,0,1-3.2123-.7779,5.3028,5.3028,0,0,1-2.0955-2.1959,7.2024,7.2024,0,0,1-.74-3.3753,7.2035,7.2035,0,0,1,.74-3.3753,5.3076,5.3076,0,0,1,2.0955-2.1959,6.3466,6.3466,0,0,1,3.2123-.7779,6.2426,6.2426,0,0,1,3.1618.7779,5.39,5.39,0,0,1,2.1081,2.1959,7.1036,7.1036,0,0,1,.7529,3.3753,7.1024,7.1024,0,0,1-.7529,3.3753,5.3849,5.3849,0,0,1-2.1081,2.1959A6.2386,6.2386,0,0,1,55.736,18.2988Zm0-1.9575a3.1248,3.1248,0,0,0,2.5094-1.1292A4.9281,4.9281,0,0,0,59.199,11.95a4.8769,4.8769,0,0,0-.9536-3.25,3.4061,3.4061,0,0,0-5.0441,0,4.8753,4.8753,0,0,0-.9536,3.25,4.9264,4.9264,0,0,0,.9536,3.2624A3.1514,3.1514,0,0,0,55.736,16.3413Z"/><path class="cls-2" d="M40.8027,11.3554l-2.937-3.7629a1.0486,1.0486,0,0,1-.2761-1.23,1.01,1.01,0,0,1,.9536-.552,1.7061,1.7061,0,0,1,.7905.1631,1.7672,1.7672,0,0,1,.59.5395L42.24,9.5963,48.9164.7027a1.8136,1.8136,0,0,1,.5772-.54A1.6279,1.6279,0,0,1,50.2715,0a1.0107,1.0107,0,0,1,.9536.5521,1.0894,1.0894,0,0,1-.276,1.2548l-7.2339,9.5485"/></g></g></svg>