<?xml version="1.0" encoding="utf-8"?>
<!-- Generator: Adobe Illustrator 26.0.1, SVG Export Plug-In . SVG Version: 6.00 Build 0)  -->
<svg version="1.1" id="katman_1" xmlns="http://www.w3.org/2000/svg" xmlns:xlink="http://www.w3.org/1999/xlink" x="0px" y="0px"
	 viewBox="0 0 128 128" style="enable-background:new 0 0 128 128;" xml:space="preserve">
<style type="text/css">
	.st0{fill:#121617;}
	.st1{fill:#008D36;}
</style>
<g id="katman_2_00000090279324570524863450000016184224375004874892_">
	<g id="katman_1-2">
		<path class="st0" d="M62.2,80l23.5,30c2.1,2,2.8,5.1,1.6,7.7c-1.1,2.3-3.5,3.7-6,3.5c-3.4,0-6.6-1.6-8.6-4.4L53,92.2l-19.6,24.7
			c-1,1.3-2.2,2.4-3.6,3.3c-1.5,0.8-3.2,1.2-4.8,1.1c-2.5,0.2-4.9-1.2-6-3.4c-1.1-2.7-0.5-5.8,1.6-7.8l23.5-30"/>
		<path class="st1" d="M44.1,77.5L25.7,54.1c-2.2-1.9-2.9-5-1.7-7.7c1.1-2.2,3.5-3.6,5.9-3.4c1.7-0.1,3.4,0.3,4.9,1
			c1.5,0.8,2.7,2,3.7,3.4L53,66.6l41.6-55.4c0.9-1.4,2.2-2.5,3.6-3.4c1.5-0.7,3.2-1.1,4.8-1c2.5-0.1,4.8,1.2,5.9,3.4
			c1.2,2.7,0.5,5.9-1.7,7.8L62.2,77.5"/>
	</g>
</g>
</svg>
